<svg width="75" height="84" viewBox="0 0 75 84" fill="none" xmlns="http://www.w3.org/2000/svg">
<path d="M54.1519 50C65.6547 50 74.9796 59.3274 74.9796 70.8333V79.1667C74.9796 81.4679 73.1146 83.3333 70.814 83.3333C68.5135 83.3333 66.6485 81.4679 66.6485 79.1667V70.8333C66.6485 63.9298 61.0536 58.3333 54.1519 58.3333H20.8277C13.926 58.3333 8.33106 63.9298 8.33106 70.8333V79.1667C8.33106 81.4679 6.46609 83.3333 4.16553 83.3333C1.86497 83.3333 0 81.4679 0 79.1667V70.8333C0 59.3274 9.32486 50 20.8277 50H54.1519ZM37.4898 0C48.9926 0 58.3174 9.3274 58.3174 20.8333C58.3174 32.3393 48.9926 41.6667 37.4898 41.6667C25.987 41.6667 16.6621 32.3393 16.6621 20.8333C16.6621 9.3274 25.987 0 37.4898 0ZM37.4898 8.33333C30.5881 8.33333 24.9932 13.9298 24.9932 20.8333C24.9932 27.7369 30.5881 33.3333 37.4898 33.3333C44.3915 33.3333 49.9864 27.7369 49.9864 20.8333C49.9864 13.9298 44.3915 8.33333 37.4898 8.33333Z" fill="#9BB8D3"/>
</svg>
